# 3ds Max Wavefront OBJ Exporter v0.97b - (c)2007 guruware
# File Created: 14.02.2018 20:01:53

#
# object Box019
#

v  -1753.8058 -61.0898 1240.6283
v  -1757.8815 -61.0898 1240.6283
v  -1757.8815 -61.0898 1236.5526
v  -1753.8058 -61.0898 1236.5526
v  -1754.3881 -10.0858 1240.0460
v  -1754.3881 -10.0858 1237.1349
v  -1757.2992 -10.0858 1237.1349
v  -1757.2992 -10.0858 1240.0460
v  -1753.8058 -14.5108 1236.5526
v  -1753.8058 -14.5108 1240.6283
v  -1757.8815 -14.5108 1236.5526
v  -1757.8815 -14.5108 1240.6283
v  -1754.3881 -14.5108 1237.1349
v  -1754.3881 -14.5108 1240.0460
v  -1757.2992 -14.5108 1237.1349
v  -1757.2992 -14.5108 1240.0460
# 16 vertices

vn 0.5774 -0.5774 0.5774
vn -0.5774 -0.5774 0.5774
vn -0.5774 -0.5774 -0.5774
vn 0.5774 -0.5774 -0.5774
vn 0.5774 0.5774 0.5774
vn 0.5774 0.5774 -0.5774
vn -0.5774 0.5774 -0.5774
vn -0.5774 0.5774 0.5774
vn 0.3015 0.9045 -0.3015
vn 0.3015 0.9045 0.3015
vn -0.3015 0.9045 -0.3015
vn -0.3015 0.9045 0.3015
# 12 vertex normals

vt 1.0000 0.0000 0.0000
vt 1.0000 1.0000 0.0000
vt 0.0000 1.0000 0.0000
vt 0.0000 0.0000 0.0000
# 4 texture coords

o Box019
g Box019
s 2
f 1/1/1 2/2/2 3/3/3 4/4/4 
s 4
f 5/4/5 6/1/6 7/2/7 8/3/8 
s 8
f 1/4/1 4/1/4 9/2/6 10/3/5 
s 16
f 4/4/4 3/1/3 11/2/7 9/3/6 
s 32
f 3/4/3 2/1/2 12/2/8 11/3/7 
s 64
f 2/4/2 1/1/1 10/2/5 12/3/8 
s off
f 10/4/5 9/1/6 13/1/9 14/4/10 
f 9/1/6 11/2/7 15/2/11 13/1/9 
f 11/2/7 12/3/8 16/3/12 15/2/11 
f 12/3/8 10/4/5 14/4/10 16/3/12 
f 14/4/10 13/1/9 6/1/6 5/4/5 
f 13/1/9 15/2/11 7/2/7 6/1/6 
f 15/2/11 16/3/12 8/3/8 7/2/7 
f 16/3/12 14/4/10 5/4/5 8/3/8 
# 14 polygons

