# 3ds Max Wavefront OBJ Exporter v0.97b - (c)2007 guruware
# File Created: 14.02.2018 20:05:57

#
# object Cylinder009
#

v  -1755.0989 48.6964 1237.7471
v  -1755.0989 48.6964 1239.0168
v  -1756.1986 48.6964 1239.6519
v  -1757.2983 48.6964 1239.0168
v  -1757.2983 48.6964 1237.7471
v  -1756.1986 48.6964 1237.1121
v  -1755.4669 49.0604 1237.9596
v  -1756.1986 49.0604 1237.5371
v  -1756.9303 49.0604 1237.9596
v  -1756.9303 49.0604 1238.8043
v  -1756.1986 49.0604 1239.2268
v  -1755.4669 49.0604 1238.8043
# 12 vertices

vn 0.8322 -0.2769 -0.4805
vn 0.8322 -0.2769 0.4805
vn 0.0000 -0.2769 0.9609
vn -0.8322 -0.2769 0.4805
vn -0.8322 -0.2769 -0.4805
vn -0.0000 -0.2769 -0.9609
vn 0.3804 0.8983 -0.2196
vn -0.0000 0.8983 -0.4393
vn -0.3804 0.8983 -0.2196
vn -0.3804 0.8983 0.2196
vn 0.0000 0.8984 0.4393
vn 0.3804 0.8983 0.2196
# 12 vertex normals

vt 0.3333 0.0000 -0.0000
vt 0.0833 0.0000 -1.0000
vt 0.2500 0.0000 -1.0000
vt 0.6667 0.0000 0.0000
vt 0.9167 0.0000 1.0000
vt 0.7500 0.0000 1.0000
vt 0.5833 1.0000 1.0000
vt 0.7500 1.0000 1.0000
vt 0.9167 1.0000 1.0000
vt 0.6667 1.0000 -0.0000
vt 0.2500 1.0000 -1.0000
vt 0.0833 1.0000 -1.0000
vt 0.5833 0.0000 1.0000
vt 0.4167 1.0000 1.0000
vt 0.4167 0.0000 1.0000
vt 0.2500 1.0000 1.0000
vt 0.2500 0.0000 1.0000
vt 0.0833 0.0000 1.0000
vt 0.0833 1.0000 1.0000
vt -0.0833 1.0000 1.0000
vt -0.0833 0.0000 1.0000
# 21 texture coords

o Cylinder009
g Cylinder009
s 1
f 1/1/1 2/2/2 3/3/3 4/4/4 5/5/5 6/6/6 
f 7/7/7 8/8/8 9/9/9 10/10/10 11/11/11 12/12/12 
s 8
f 1/13/1 7/7/7 12/14/12 2/15/2 
f 6/6/6 8/8/8 7/7/7 1/13/1 
f 2/15/2 12/14/12 11/16/11 3/17/3 
f 4/18/4 10/19/10 9/20/9 5/21/5 
f 5/5/5 9/9/9 8/8/8 6/6/6 
f 3/17/3 11/16/11 10/19/10 4/18/4 
# 8 polygons

